<mxfile host="app.diagrams.net" modified="2024-05-14T00:55:58.871Z" agent="Mozilla/5.0 (Windows NT 10.0; Win64; x64) AppleWebKit/537.36 (KHTML, like Gecko) Chrome/124.0.0.0 Safari/537.36" etag="lzXruW-VuwbmlZKtAT5e" version="24.3.0" type="device">
  <diagram name="Page-1" id="rNeTUbyakFLS6tFPf03Q">
    <mxGraphModel dx="3430" dy="1114" grid="1" gridSize="10" guides="1" tooltips="1" connect="1" arrows="1" fold="1" page="1" pageScale="1" pageWidth="850" pageHeight="1100" math="0" shadow="0">
      <root>
        <mxCell id="0" />
        <mxCell id="1" parent="0" />
        <mxCell id="GlWkl3OmCdUaYHNWcbU0-1" value="&lt;font style=&quot;font-size: 24px;&quot;&gt;START&lt;/font&gt;" style="ellipse;whiteSpace=wrap;html=1;" parent="1" vertex="1">
          <mxGeometry x="340" y="10" width="120" height="80" as="geometry" />
        </mxCell>
        <mxCell id="GlWkl3OmCdUaYHNWcbU0-2" value="" style="endArrow=classic;html=1;rounded=0;" parent="1" edge="1">
          <mxGeometry width="50" height="50" relative="1" as="geometry">
            <mxPoint x="400" y="90" as="sourcePoint" />
            <mxPoint x="400" y="160" as="targetPoint" />
          </mxGeometry>
        </mxCell>
        <mxCell id="GlWkl3OmCdUaYHNWcbU0-3" value="&lt;font style=&quot;font-size: 24px;&quot;&gt;HOME PAGE&lt;/font&gt;" style="rounded=0;whiteSpace=wrap;html=1;" parent="1" vertex="1">
          <mxGeometry x="340" y="160" width="120" height="60" as="geometry" />
        </mxCell>
        <mxCell id="GlWkl3OmCdUaYHNWcbU0-4" value="" style="endArrow=classic;html=1;rounded=0;" parent="1" edge="1">
          <mxGeometry width="50" height="50" relative="1" as="geometry">
            <mxPoint x="400" y="220" as="sourcePoint" />
            <mxPoint x="400" y="300" as="targetPoint" />
          </mxGeometry>
        </mxCell>
        <mxCell id="GlWkl3OmCdUaYHNWcbU0-5" value="&lt;font style=&quot;font-size: 14px;&quot;&gt;DO YOU HAVE AN ACCOUNT&lt;/font&gt;" style="rhombus;whiteSpace=wrap;html=1;" parent="1" vertex="1">
          <mxGeometry x="320" y="300" width="160" height="100" as="geometry" />
        </mxCell>
        <mxCell id="GlWkl3OmCdUaYHNWcbU0-22" value="" style="endArrow=none;html=1;rounded=0;entryX=0.5;entryY=1;entryDx=0;entryDy=0;" parent="1" source="GlWkl3OmCdUaYHNWcbU0-29" target="GlWkl3OmCdUaYHNWcbU0-5" edge="1">
          <mxGeometry width="50" height="50" relative="1" as="geometry">
            <mxPoint x="160" y="350" as="sourcePoint" />
            <mxPoint x="320" y="350" as="targetPoint" />
            <Array as="points">
              <mxPoint x="350" y="490" />
              <mxPoint x="400" y="490" />
            </Array>
          </mxGeometry>
        </mxCell>
        <mxCell id="GlWkl3OmCdUaYHNWcbU0-25" value="" style="endArrow=classic;html=1;rounded=0;" parent="1" edge="1">
          <mxGeometry width="50" height="50" relative="1" as="geometry">
            <mxPoint x="340" y="615" as="sourcePoint" />
            <mxPoint x="340" y="655" as="targetPoint" />
          </mxGeometry>
        </mxCell>
        <mxCell id="GlWkl3OmCdUaYHNWcbU0-26" value="" style="endArrow=classic;html=1;rounded=0;" parent="1" edge="1">
          <mxGeometry width="50" height="50" relative="1" as="geometry">
            <mxPoint x="-350.77" y="615" as="sourcePoint" />
            <mxPoint x="-350.77" y="655" as="targetPoint" />
          </mxGeometry>
        </mxCell>
        <mxCell id="GlWkl3OmCdUaYHNWcbU0-27" value="&lt;font style=&quot;font-size: 24px;&quot;&gt;SIGNUP&lt;/font&gt;" style="rounded=0;whiteSpace=wrap;html=1;" parent="1" vertex="1">
          <mxGeometry x="280" y="655" width="120" height="60" as="geometry" />
        </mxCell>
        <mxCell id="GlWkl3OmCdUaYHNWcbU0-28" value="&lt;font style=&quot;font-size: 18px;&quot;&gt;ENTER AS GUEST&lt;/font&gt;" style="rounded=0;whiteSpace=wrap;html=1;" parent="1" vertex="1">
          <mxGeometry x="-410" y="655" width="120" height="60" as="geometry" />
        </mxCell>
        <mxCell id="GlWkl3OmCdUaYHNWcbU0-30" value="" style="endArrow=none;html=1;rounded=0;" parent="1" target="GlWkl3OmCdUaYHNWcbU0-29" edge="1">
          <mxGeometry width="50" height="50" relative="1" as="geometry">
            <mxPoint x="260" y="565" as="sourcePoint" />
            <mxPoint x="420" y="565" as="targetPoint" />
          </mxGeometry>
        </mxCell>
        <mxCell id="GlWkl3OmCdUaYHNWcbU0-29" value="&lt;font style=&quot;font-size: 24px;&quot;&gt;NO&lt;/font&gt;" style="text;html=1;strokeColor=none;fillColor=none;align=center;verticalAlign=middle;whiteSpace=wrap;rounded=0;" parent="1" vertex="1">
          <mxGeometry x="320" y="550" width="60" height="30" as="geometry" />
        </mxCell>
        <mxCell id="GlWkl3OmCdUaYHNWcbU0-31" value="" style="endArrow=none;html=1;rounded=0;" parent="1" source="GlWkl3OmCdUaYHNWcbU0-34" edge="1">
          <mxGeometry width="50" height="50" relative="1" as="geometry">
            <mxPoint x="640" y="350" as="sourcePoint" />
            <mxPoint x="800" y="350" as="targetPoint" />
          </mxGeometry>
        </mxCell>
        <mxCell id="GlWkl3OmCdUaYHNWcbU0-32" value="" style="endArrow=classic;html=1;rounded=0;" parent="1" target="GlWkl3OmCdUaYHNWcbU0-33" edge="1">
          <mxGeometry width="50" height="50" relative="1" as="geometry">
            <mxPoint x="800" y="350" as="sourcePoint" />
            <mxPoint x="800" y="440" as="targetPoint" />
          </mxGeometry>
        </mxCell>
        <mxCell id="GlWkl3OmCdUaYHNWcbU0-35" value="" style="endArrow=none;html=1;rounded=0;" parent="1" target="GlWkl3OmCdUaYHNWcbU0-34" edge="1">
          <mxGeometry width="50" height="50" relative="1" as="geometry">
            <mxPoint x="480" y="350" as="sourcePoint" />
            <mxPoint x="640" y="350" as="targetPoint" />
          </mxGeometry>
        </mxCell>
        <mxCell id="GlWkl3OmCdUaYHNWcbU0-34" value="&lt;font style=&quot;font-size: 24px;&quot;&gt;YES&lt;/font&gt;" style="text;html=1;strokeColor=none;fillColor=none;align=center;verticalAlign=middle;whiteSpace=wrap;rounded=0;" parent="1" vertex="1">
          <mxGeometry x="680" y="335" width="60" height="30" as="geometry" />
        </mxCell>
        <mxCell id="GlWkl3OmCdUaYHNWcbU0-37" value="" style="endArrow=none;html=1;rounded=0;" parent="1" edge="1">
          <mxGeometry width="50" height="50" relative="1" as="geometry">
            <mxPoint x="340" y="715" as="sourcePoint" />
            <mxPoint x="340" y="815" as="targetPoint" />
          </mxGeometry>
        </mxCell>
        <mxCell id="GlWkl3OmCdUaYHNWcbU0-42" value="" style="endArrow=none;html=1;rounded=0;" parent="1" source="GlWkl3OmCdUaYHNWcbU0-33" edge="1">
          <mxGeometry width="50" height="50" relative="1" as="geometry">
            <mxPoint x="800" y="560" as="sourcePoint" />
            <mxPoint x="800" y="470" as="targetPoint" />
          </mxGeometry>
        </mxCell>
        <mxCell id="2Sqga-I5FuaKmK1ATm7p-1" value="" style="endArrow=none;html=1;rounded=0;" parent="1" edge="1">
          <mxGeometry width="50" height="50" relative="1" as="geometry">
            <mxPoint x="160" y="815" as="sourcePoint" />
            <mxPoint x="510" y="815" as="targetPoint" />
          </mxGeometry>
        </mxCell>
        <mxCell id="2Sqga-I5FuaKmK1ATm7p-2" value="" style="endArrow=none;html=1;rounded=0;" parent="1" edge="1">
          <mxGeometry width="50" height="50" relative="1" as="geometry">
            <mxPoint x="260" y="615" as="sourcePoint" />
            <mxPoint x="260" y="565" as="targetPoint" />
          </mxGeometry>
        </mxCell>
        <mxCell id="2Sqga-I5FuaKmK1ATm7p-3" value="" style="endArrow=none;html=1;rounded=0;" parent="1" edge="1">
          <mxGeometry width="50" height="50" relative="1" as="geometry">
            <mxPoint x="-350" y="615" as="sourcePoint" />
            <mxPoint x="260" y="615" as="targetPoint" />
          </mxGeometry>
        </mxCell>
        <mxCell id="2Sqga-I5FuaKmK1ATm7p-4" value="" style="endArrow=none;html=1;rounded=0;" parent="1" edge="1">
          <mxGeometry width="50" height="50" relative="1" as="geometry">
            <mxPoint x="260" y="615" as="sourcePoint" />
            <mxPoint x="340" y="615" as="targetPoint" />
          </mxGeometry>
        </mxCell>
        <mxCell id="2Sqga-I5FuaKmK1ATm7p-5" value="" style="endArrow=none;html=1;rounded=0;" parent="1" target="GlWkl3OmCdUaYHNWcbU0-33" edge="1">
          <mxGeometry width="50" height="50" relative="1" as="geometry">
            <mxPoint x="800" y="600" as="sourcePoint" />
            <mxPoint x="800" y="470" as="targetPoint" />
          </mxGeometry>
        </mxCell>
        <mxCell id="GlWkl3OmCdUaYHNWcbU0-33" value="&lt;font style=&quot;font-size: 24px;&quot;&gt;LOGIN&lt;/font&gt;" style="rounded=0;whiteSpace=wrap;html=1;" parent="1" vertex="1">
          <mxGeometry x="740" y="440" width="120" height="60" as="geometry" />
        </mxCell>
        <mxCell id="2Sqga-I5FuaKmK1ATm7p-10" value="" style="endArrow=classic;html=1;rounded=0;" parent="1" edge="1">
          <mxGeometry width="50" height="50" relative="1" as="geometry">
            <mxPoint x="509.29" y="815" as="sourcePoint" />
            <mxPoint x="509.29" y="935" as="targetPoint" />
          </mxGeometry>
        </mxCell>
        <mxCell id="2Sqga-I5FuaKmK1ATm7p-11" value="" style="endArrow=classic;html=1;rounded=0;" parent="1" edge="1">
          <mxGeometry width="50" height="50" relative="1" as="geometry">
            <mxPoint x="160" y="815" as="sourcePoint" />
            <mxPoint x="160" y="935" as="targetPoint" />
          </mxGeometry>
        </mxCell>
        <mxCell id="2Sqga-I5FuaKmK1ATm7p-13" value="STUDENT" style="rounded=0;whiteSpace=wrap;html=1;" parent="1" vertex="1">
          <mxGeometry x="100" y="935" width="120" height="60" as="geometry" />
        </mxCell>
        <mxCell id="2Sqga-I5FuaKmK1ATm7p-14" value="COLLEGE" style="rounded=0;whiteSpace=wrap;html=1;" parent="1" vertex="1">
          <mxGeometry x="450" y="935" width="120" height="60" as="geometry" />
        </mxCell>
        <mxCell id="2Sqga-I5FuaKmK1ATm7p-15" value="" style="endArrow=none;html=1;rounded=0;" parent="1" edge="1">
          <mxGeometry width="50" height="50" relative="1" as="geometry">
            <mxPoint x="660" y="600" as="sourcePoint" />
            <mxPoint x="1120" y="600" as="targetPoint" />
          </mxGeometry>
        </mxCell>
        <mxCell id="2Sqga-I5FuaKmK1ATm7p-16" value="" style="endArrow=classic;html=1;rounded=0;" parent="1" edge="1">
          <mxGeometry width="50" height="50" relative="1" as="geometry">
            <mxPoint x="1120" y="600" as="sourcePoint" />
            <mxPoint x="1120" y="730" as="targetPoint" />
          </mxGeometry>
        </mxCell>
        <mxCell id="2Sqga-I5FuaKmK1ATm7p-17" value="" style="endArrow=classic;html=1;rounded=0;" parent="1" edge="1">
          <mxGeometry width="50" height="50" relative="1" as="geometry">
            <mxPoint x="660" y="600" as="sourcePoint" />
            <mxPoint x="660" y="720" as="targetPoint" />
          </mxGeometry>
        </mxCell>
        <mxCell id="2Sqga-I5FuaKmK1ATm7p-18" value="STUDENT" style="rounded=0;whiteSpace=wrap;html=1;" parent="1" vertex="1">
          <mxGeometry x="600" y="720" width="120" height="60" as="geometry" />
        </mxCell>
        <mxCell id="2Sqga-I5FuaKmK1ATm7p-19" value="ADMIN" style="rounded=0;whiteSpace=wrap;html=1;" parent="1" vertex="1">
          <mxGeometry x="1060" y="730" width="120" height="60" as="geometry" />
        </mxCell>
        <mxCell id="2Sqga-I5FuaKmK1ATm7p-20" value="" style="endArrow=classic;html=1;rounded=0;" parent="1" edge="1">
          <mxGeometry width="50" height="50" relative="1" as="geometry">
            <mxPoint x="800" y="600" as="sourcePoint" />
            <mxPoint x="800" y="720" as="targetPoint" />
          </mxGeometry>
        </mxCell>
        <mxCell id="2Sqga-I5FuaKmK1ATm7p-21" value="COLLEGE" style="rounded=0;whiteSpace=wrap;html=1;" parent="1" vertex="1">
          <mxGeometry x="740" y="720" width="120" height="60" as="geometry" />
        </mxCell>
        <mxCell id="2Sqga-I5FuaKmK1ATm7p-24" value="" style="endArrow=classic;html=1;rounded=0;" parent="1" edge="1">
          <mxGeometry width="50" height="50" relative="1" as="geometry">
            <mxPoint x="509.29" y="995" as="sourcePoint" />
            <mxPoint x="509.29" y="1095" as="targetPoint" />
          </mxGeometry>
        </mxCell>
        <mxCell id="2Sqga-I5FuaKmK1ATm7p-27" value="STUDENT PAGE" style="rounded=0;whiteSpace=wrap;html=1;" parent="1" vertex="1">
          <mxGeometry x="100" y="1095" width="120" height="60" as="geometry" />
        </mxCell>
        <mxCell id="2Sqga-I5FuaKmK1ATm7p-28" value="" style="endArrow=classic;html=1;rounded=0;" parent="1" target="2Sqga-I5FuaKmK1ATm7p-27" edge="1">
          <mxGeometry width="50" height="50" relative="1" as="geometry">
            <mxPoint x="160" y="995" as="sourcePoint" />
            <mxPoint x="210" y="945" as="targetPoint" />
          </mxGeometry>
        </mxCell>
        <mxCell id="2Sqga-I5FuaKmK1ATm7p-29" value="COLLEGE PAGE" style="rounded=0;whiteSpace=wrap;html=1;" parent="1" vertex="1">
          <mxGeometry x="450" y="1095" width="120" height="60" as="geometry" />
        </mxCell>
        <mxCell id="RxwLfen7JAWFkCSxQVpV-8" value="" style="edgeStyle=orthogonalEdgeStyle;rounded=0;orthogonalLoop=1;jettySize=auto;html=1;" parent="1" source="RxwLfen7JAWFkCSxQVpV-2" target="RxwLfen7JAWFkCSxQVpV-6" edge="1">
          <mxGeometry relative="1" as="geometry" />
        </mxCell>
        <mxCell id="RxwLfen7JAWFkCSxQVpV-2" value="GUEST EVENT PAGE" style="rounded=0;whiteSpace=wrap;html=1;" parent="1" vertex="1">
          <mxGeometry x="-410" y="790" width="120" height="60" as="geometry" />
        </mxCell>
        <mxCell id="RxwLfen7JAWFkCSxQVpV-3" value="" style="endArrow=classic;html=1;rounded=0;entryX=0.5;entryY=0;entryDx=0;entryDy=0;" parent="1" target="RxwLfen7JAWFkCSxQVpV-2" edge="1">
          <mxGeometry width="50" height="50" relative="1" as="geometry">
            <mxPoint x="-350" y="715" as="sourcePoint" />
            <mxPoint x="-300" y="665" as="targetPoint" />
          </mxGeometry>
        </mxCell>
        <mxCell id="RxwLfen7JAWFkCSxQVpV-6" value="FUNCTIONS" style="rounded=0;whiteSpace=wrap;html=1;" parent="1" vertex="1">
          <mxGeometry x="-410" y="925" width="120" height="60" as="geometry" />
        </mxCell>
        <mxCell id="RxwLfen7JAWFkCSxQVpV-7" value="" style="endArrow=classic;html=1;rounded=0;entryX=0.5;entryY=0;entryDx=0;entryDy=0;" parent="1" target="RxwLfen7JAWFkCSxQVpV-6" edge="1">
          <mxGeometry width="50" height="50" relative="1" as="geometry">
            <mxPoint x="-350" y="850" as="sourcePoint" />
            <mxPoint x="-300" y="800" as="targetPoint" />
          </mxGeometry>
        </mxCell>
        <mxCell id="RxwLfen7JAWFkCSxQVpV-10" value="" style="endArrow=classic;html=1;rounded=0;entryX=0.5;entryY=0;entryDx=0;entryDy=0;" parent="1" edge="1">
          <mxGeometry width="50" height="50" relative="1" as="geometry">
            <mxPoint x="-350.77" y="985" as="sourcePoint" />
            <mxPoint x="-350.77" y="1060" as="targetPoint" />
          </mxGeometry>
        </mxCell>
        <mxCell id="RxwLfen7JAWFkCSxQVpV-13" value="VIEW EVENTS FROM DIFFERENT COLLEGES" style="rounded=0;whiteSpace=wrap;html=1;" parent="1" vertex="1">
          <mxGeometry x="-410" y="1060" width="120" height="60" as="geometry" />
        </mxCell>
        <mxCell id="LSiXLnKJCYIWnThxIZ49-1" value="SIGNUP" style="rounded=0;whiteSpace=wrap;html=1;" parent="1" vertex="1">
          <mxGeometry x="-600" y="925" width="120" height="60" as="geometry" />
        </mxCell>
        <mxCell id="LSiXLnKJCYIWnThxIZ49-3" value="" style="endArrow=classic;html=1;rounded=0;" parent="1" edge="1">
          <mxGeometry width="50" height="50" relative="1" as="geometry">
            <mxPoint x="-410" y="954.33" as="sourcePoint" />
            <mxPoint x="-480" y="954.8900000000001" as="targetPoint" />
          </mxGeometry>
        </mxCell>
        <mxCell id="LSiXLnKJCYIWnThxIZ49-4" value="" style="endArrow=classic;html=1;rounded=0;" parent="1" edge="1">
          <mxGeometry width="50" height="50" relative="1" as="geometry">
            <mxPoint x="800" y="1120" as="sourcePoint" />
            <mxPoint x="570" y="1120" as="targetPoint" />
          </mxGeometry>
        </mxCell>
        <mxCell id="LSiXLnKJCYIWnThxIZ49-6" value="" style="endArrow=none;html=1;rounded=0;" parent="1" edge="1">
          <mxGeometry width="50" height="50" relative="1" as="geometry">
            <mxPoint x="800" y="1120" as="sourcePoint" />
            <mxPoint x="800" y="780" as="targetPoint" />
          </mxGeometry>
        </mxCell>
        <mxCell id="LSiXLnKJCYIWnThxIZ49-7" value="" style="endArrow=none;html=1;rounded=0;" parent="1" edge="1">
          <mxGeometry width="50" height="50" relative="1" as="geometry">
            <mxPoint x="660" y="840" as="sourcePoint" />
            <mxPoint x="660" y="780" as="targetPoint" />
          </mxGeometry>
        </mxCell>
        <mxCell id="LSiXLnKJCYIWnThxIZ49-8" value="" style="endArrow=none;html=1;rounded=0;" parent="1" edge="1">
          <mxGeometry width="50" height="50" relative="1" as="geometry">
            <mxPoint y="840" as="sourcePoint" />
            <mxPoint x="660" y="840" as="targetPoint" />
          </mxGeometry>
        </mxCell>
        <mxCell id="LSiXLnKJCYIWnThxIZ49-10" value="" style="endArrow=none;html=1;rounded=0;" parent="1" edge="1">
          <mxGeometry width="50" height="50" relative="1" as="geometry">
            <mxPoint y="1120" as="sourcePoint" />
            <mxPoint y="840" as="targetPoint" />
          </mxGeometry>
        </mxCell>
        <mxCell id="LSiXLnKJCYIWnThxIZ49-14" value="" style="endArrow=classic;html=1;rounded=0;" parent="1" edge="1">
          <mxGeometry width="50" height="50" relative="1" as="geometry">
            <mxPoint y="1120" as="sourcePoint" />
            <mxPoint x="100" y="1120" as="targetPoint" />
          </mxGeometry>
        </mxCell>
        <mxCell id="LSiXLnKJCYIWnThxIZ49-34" value="" style="edgeStyle=orthogonalEdgeStyle;rounded=0;orthogonalLoop=1;jettySize=auto;html=1;" parent="1" target="LSiXLnKJCYIWnThxIZ49-35" edge="1">
          <mxGeometry relative="1" as="geometry">
            <mxPoint x="160" y="1155" as="sourcePoint" />
          </mxGeometry>
        </mxCell>
        <mxCell id="LSiXLnKJCYIWnThxIZ49-35" value="FUNCTIONS" style="rounded=0;whiteSpace=wrap;html=1;" parent="1" vertex="1">
          <mxGeometry x="100" y="1230" width="120" height="60" as="geometry" />
        </mxCell>
        <mxCell id="LSiXLnKJCYIWnThxIZ49-36" value="" style="endArrow=classic;html=1;rounded=0;entryX=0.5;entryY=0;entryDx=0;entryDy=0;" parent="1" target="LSiXLnKJCYIWnThxIZ49-35" edge="1">
          <mxGeometry width="50" height="50" relative="1" as="geometry">
            <mxPoint x="160" y="1155" as="sourcePoint" />
            <mxPoint x="210" y="1105" as="targetPoint" />
          </mxGeometry>
        </mxCell>
        <mxCell id="LSiXLnKJCYIWnThxIZ49-37" value="" style="endArrow=classic;html=1;rounded=0;entryX=0.5;entryY=0;entryDx=0;entryDy=0;" parent="1" edge="1">
          <mxGeometry width="50" height="50" relative="1" as="geometry">
            <mxPoint x="159.23" y="1290" as="sourcePoint" />
            <mxPoint x="159.23" y="1365" as="targetPoint" />
          </mxGeometry>
        </mxCell>
        <mxCell id="LSiXLnKJCYIWnThxIZ49-38" value="VIEW EVENTS FROM DIFFERENT COLLEGES" style="rounded=0;whiteSpace=wrap;html=1;" parent="1" vertex="1">
          <mxGeometry x="100" y="1365" width="120" height="60" as="geometry" />
        </mxCell>
        <mxCell id="LSiXLnKJCYIWnThxIZ49-39" value="REGUSTER FOR VARIOS EVENTS" style="rounded=0;whiteSpace=wrap;html=1;" parent="1" vertex="1">
          <mxGeometry x="-90" y="1230" width="120" height="60" as="geometry" />
        </mxCell>
        <mxCell id="LSiXLnKJCYIWnThxIZ49-40" value="" style="endArrow=classic;html=1;rounded=0;" parent="1" edge="1">
          <mxGeometry width="50" height="50" relative="1" as="geometry">
            <mxPoint x="100" y="1259.33" as="sourcePoint" />
            <mxPoint x="30" y="1259.89" as="targetPoint" />
          </mxGeometry>
        </mxCell>
        <mxCell id="LSiXLnKJCYIWnThxIZ49-48" value="" style="edgeStyle=orthogonalEdgeStyle;rounded=0;orthogonalLoop=1;jettySize=auto;html=1;" parent="1" target="LSiXLnKJCYIWnThxIZ49-49" edge="1">
          <mxGeometry relative="1" as="geometry">
            <mxPoint x="510" y="1155" as="sourcePoint" />
          </mxGeometry>
        </mxCell>
        <mxCell id="LSiXLnKJCYIWnThxIZ49-49" value="FUNCTIONS" style="rounded=0;whiteSpace=wrap;html=1;" parent="1" vertex="1">
          <mxGeometry x="450" y="1230" width="120" height="60" as="geometry" />
        </mxCell>
        <mxCell id="LSiXLnKJCYIWnThxIZ49-50" value="" style="endArrow=classic;html=1;rounded=0;entryX=0.5;entryY=0;entryDx=0;entryDy=0;" parent="1" target="LSiXLnKJCYIWnThxIZ49-49" edge="1">
          <mxGeometry width="50" height="50" relative="1" as="geometry">
            <mxPoint x="510" y="1155" as="sourcePoint" />
            <mxPoint x="560" y="1105" as="targetPoint" />
          </mxGeometry>
        </mxCell>
        <mxCell id="LSiXLnKJCYIWnThxIZ49-51" value="" style="endArrow=classic;html=1;rounded=0;entryX=0.5;entryY=0;entryDx=0;entryDy=0;" parent="1" edge="1">
          <mxGeometry width="50" height="50" relative="1" as="geometry">
            <mxPoint x="509.23" y="1290" as="sourcePoint" />
            <mxPoint x="509.23" y="1365" as="targetPoint" />
          </mxGeometry>
        </mxCell>
        <mxCell id="LSiXLnKJCYIWnThxIZ49-52" value="VIEW ALREADY RESGISTERED EVENTS" style="rounded=0;whiteSpace=wrap;html=1;" parent="1" vertex="1">
          <mxGeometry x="450" y="1365" width="120" height="60" as="geometry" />
        </mxCell>
        <mxCell id="LSiXLnKJCYIWnThxIZ49-53" value="REGISTER A NEW EVENT BY SENDING A REQUEST" style="rounded=0;whiteSpace=wrap;html=1;" parent="1" vertex="1">
          <mxGeometry x="640" y="1230" width="120" height="60" as="geometry" />
        </mxCell>
        <mxCell id="LSiXLnKJCYIWnThxIZ49-55" value="" style="endArrow=classic;html=1;rounded=0;" parent="1" edge="1">
          <mxGeometry width="50" height="50" relative="1" as="geometry">
            <mxPoint x="570" y="1259.89" as="sourcePoint" />
            <mxPoint x="640" y="1259.33" as="targetPoint" />
          </mxGeometry>
        </mxCell>
        <mxCell id="LSiXLnKJCYIWnThxIZ49-56" value="SEARCH FOR EVENTS" style="rounded=0;whiteSpace=wrap;html=1;" parent="1" vertex="1">
          <mxGeometry x="-220" y="925" width="120" height="60" as="geometry" />
        </mxCell>
        <mxCell id="LSiXLnKJCYIWnThxIZ49-57" value="" style="endArrow=classic;html=1;rounded=0;" parent="1" edge="1">
          <mxGeometry width="50" height="50" relative="1" as="geometry">
            <mxPoint x="-290" y="954.7900000000001" as="sourcePoint" />
            <mxPoint x="-220" y="954.23" as="targetPoint" />
          </mxGeometry>
        </mxCell>
        <mxCell id="LSiXLnKJCYIWnThxIZ49-61" value="FUNCTIONS" style="rounded=0;whiteSpace=wrap;html=1;" parent="1" vertex="1">
          <mxGeometry x="1060" y="1027.5" width="120" height="60" as="geometry" />
        </mxCell>
        <mxCell id="LSiXLnKJCYIWnThxIZ49-63" value="" style="endArrow=classic;html=1;rounded=0;entryX=0.5;entryY=0;entryDx=0;entryDy=0;" parent="1" edge="1">
          <mxGeometry width="50" height="50" relative="1" as="geometry">
            <mxPoint x="1119.23" y="1087.5" as="sourcePoint" />
            <mxPoint x="1119.23" y="1162.5" as="targetPoint" />
          </mxGeometry>
        </mxCell>
        <mxCell id="LSiXLnKJCYIWnThxIZ49-64" value="VIEW ALREADY RESGISTERED EVENTS" style="rounded=0;whiteSpace=wrap;html=1;" parent="1" vertex="1">
          <mxGeometry x="1060" y="1162.5" width="120" height="60" as="geometry" />
        </mxCell>
        <mxCell id="LSiXLnKJCYIWnThxIZ49-65" value="DELETE UNWANTED EVENTS" style="rounded=0;whiteSpace=wrap;html=1;" parent="1" vertex="1">
          <mxGeometry x="1250" y="1027.5" width="120" height="60" as="geometry" />
        </mxCell>
        <mxCell id="LSiXLnKJCYIWnThxIZ49-66" value="" style="endArrow=classic;html=1;rounded=0;" parent="1" edge="1">
          <mxGeometry width="50" height="50" relative="1" as="geometry">
            <mxPoint x="1180" y="1057.39" as="sourcePoint" />
            <mxPoint x="1250" y="1056.83" as="targetPoint" />
          </mxGeometry>
        </mxCell>
        <mxCell id="LSiXLnKJCYIWnThxIZ49-67" value="APPROVE OR DENY REQUESTS FROM COLLEGES" style="rounded=0;whiteSpace=wrap;html=1;" parent="1" vertex="1">
          <mxGeometry x="870" y="1027.5" width="120" height="60" as="geometry" />
        </mxCell>
        <mxCell id="LSiXLnKJCYIWnThxIZ49-68" value="" style="endArrow=classic;html=1;rounded=0;" parent="1" edge="1">
          <mxGeometry width="50" height="50" relative="1" as="geometry">
            <mxPoint x="1060" y="1056.83" as="sourcePoint" />
            <mxPoint x="990" y="1057.39" as="targetPoint" />
          </mxGeometry>
        </mxCell>
        <mxCell id="LSiXLnKJCYIWnThxIZ49-69" value="" style="endArrow=classic;html=1;rounded=0;" parent="1" edge="1">
          <mxGeometry width="50" height="50" relative="1" as="geometry">
            <mxPoint x="1119.29" y="790" as="sourcePoint" />
            <mxPoint x="1119.29" y="890" as="targetPoint" />
          </mxGeometry>
        </mxCell>
        <mxCell id="LSiXLnKJCYIWnThxIZ49-70" value="ADMIN PAGE" style="rounded=0;whiteSpace=wrap;html=1;" parent="1" vertex="1">
          <mxGeometry x="1060" y="890" width="120" height="60" as="geometry" />
        </mxCell>
        <mxCell id="LSiXLnKJCYIWnThxIZ49-71" value="" style="endArrow=classic;html=1;rounded=0;entryX=0.5;entryY=0;entryDx=0;entryDy=0;" parent="1" edge="1">
          <mxGeometry width="50" height="50" relative="1" as="geometry">
            <mxPoint x="1119.33" y="950" as="sourcePoint" />
            <mxPoint x="1119.33" y="1025" as="targetPoint" />
          </mxGeometry>
        </mxCell>
        <mxCell id="6yVaFwFHj4wXWIKCy-9a-1" value="&lt;font style=&quot;font-size: 18px;&quot;&gt;DATABASE&lt;/font&gt;&lt;div&gt;&lt;br&gt;&lt;/div&gt;" style="shape=cylinder3;whiteSpace=wrap;html=1;boundedLbl=1;backgroundOutline=1;size=15;" vertex="1" parent="1">
          <mxGeometry x="260" y="1530" width="170" height="220" as="geometry" />
        </mxCell>
        <mxCell id="6yVaFwFHj4wXWIKCy-9a-4" value="" style="endArrow=none;html=1;rounded=0;" edge="1" parent="1">
          <mxGeometry width="50" height="50" relative="1" as="geometry">
            <mxPoint x="-350" y="1600" as="sourcePoint" />
            <mxPoint x="-350" y="1120" as="targetPoint" />
          </mxGeometry>
        </mxCell>
        <mxCell id="6yVaFwFHj4wXWIKCy-9a-6" value="" style="endArrow=classic;html=1;rounded=0;" edge="1" parent="1">
          <mxGeometry width="50" height="50" relative="1" as="geometry">
            <mxPoint x="-350" y="1600" as="sourcePoint" />
            <mxPoint x="260" y="1600" as="targetPoint" />
          </mxGeometry>
        </mxCell>
        <mxCell id="6yVaFwFHj4wXWIKCy-9a-7" value="" style="endArrow=classic;html=1;rounded=0;entryX=-0.003;entryY=0.133;entryDx=0;entryDy=0;entryPerimeter=0;" edge="1" parent="1" target="6yVaFwFHj4wXWIKCy-9a-1">
          <mxGeometry width="50" height="50" relative="1" as="geometry">
            <mxPoint x="160" y="1560" as="sourcePoint" />
            <mxPoint x="260" y="1440" as="targetPoint" />
          </mxGeometry>
        </mxCell>
        <mxCell id="6yVaFwFHj4wXWIKCy-9a-8" value="" style="endArrow=none;html=1;rounded=0;entryX=0.5;entryY=1;entryDx=0;entryDy=0;" edge="1" parent="1" target="LSiXLnKJCYIWnThxIZ49-38">
          <mxGeometry width="50" height="50" relative="1" as="geometry">
            <mxPoint x="160" y="1560" as="sourcePoint" />
            <mxPoint x="290" y="1390" as="targetPoint" />
          </mxGeometry>
        </mxCell>
        <mxCell id="6yVaFwFHj4wXWIKCy-9a-9" value="" style="endArrow=classic;html=1;rounded=0;entryX=0.998;entryY=0.358;entryDx=0;entryDy=0;entryPerimeter=0;" edge="1" parent="1">
          <mxGeometry width="50" height="50" relative="1" as="geometry">
            <mxPoint x="1120.34" y="1600.24" as="sourcePoint" />
            <mxPoint x="430.0000000000003" y="1599.9999999999998" as="targetPoint" />
          </mxGeometry>
        </mxCell>
        <mxCell id="6yVaFwFHj4wXWIKCy-9a-10" value="" style="endArrow=classic;html=1;rounded=0;entryX=1.016;entryY=0.147;entryDx=0;entryDy=0;entryPerimeter=0;" edge="1" parent="1">
          <mxGeometry width="50" height="50" relative="1" as="geometry">
            <mxPoint x="510" y="1560" as="sourcePoint" />
            <mxPoint x="430.0000000000002" y="1560.34" as="targetPoint" />
          </mxGeometry>
        </mxCell>
        <mxCell id="6yVaFwFHj4wXWIKCy-9a-11" value="" style="endArrow=none;html=1;rounded=0;entryX=0.5;entryY=1;entryDx=0;entryDy=0;" edge="1" parent="1" target="LSiXLnKJCYIWnThxIZ49-64">
          <mxGeometry width="50" height="50" relative="1" as="geometry">
            <mxPoint x="1120" y="1600" as="sourcePoint" />
            <mxPoint x="1060" y="1340" as="targetPoint" />
          </mxGeometry>
        </mxCell>
        <mxCell id="6yVaFwFHj4wXWIKCy-9a-12" value="" style="endArrow=none;html=1;rounded=0;entryX=0.5;entryY=1;entryDx=0;entryDy=0;" edge="1" parent="1" target="LSiXLnKJCYIWnThxIZ49-52">
          <mxGeometry width="50" height="50" relative="1" as="geometry">
            <mxPoint x="510" y="1560" as="sourcePoint" />
            <mxPoint x="410" y="1460" as="targetPoint" />
          </mxGeometry>
        </mxCell>
      </root>
    </mxGraphModel>
  </diagram>
</mxfile>
